<mxfile host="www.draw.io" modified="2020-03-09T08:44:49.516Z" agent="Mozilla/5.0 (Macintosh; Intel Mac OS X 10_14_6) AppleWebKit/537.36 (KHTML, like Gecko) Chrome/80.0.3987.122 Safari/537.36" etag="dJl71UnDYUzGYEYkNREk" version="12.8.1" type="github">
  <diagram id="p5WZyd-jqIp_A3p0xDIT" name="第 1 页">
    <mxGraphModel dx="1654" dy="823" grid="1" gridSize="10" guides="1" tooltips="1" connect="1" arrows="1" fold="1" page="1" pageScale="1" pageWidth="827" pageHeight="1169" math="0" shadow="0">
      <root>
        <mxCell id="0" />
        <mxCell id="1" parent="0" />
        <mxCell id="xzGEer4VqcZUY7eYkHOb-3" style="edgeStyle=orthogonalEdgeStyle;rounded=0;orthogonalLoop=1;jettySize=auto;html=1;exitX=0.5;exitY=1;exitDx=0;exitDy=0;entryX=0.5;entryY=0;entryDx=0;entryDy=0;" edge="1" parent="1" source="xzGEer4VqcZUY7eYkHOb-1" target="xzGEer4VqcZUY7eYkHOb-2">
          <mxGeometry relative="1" as="geometry" />
        </mxCell>
        <mxCell id="xzGEer4VqcZUY7eYkHOb-1" value="获取id=123的记录" style="rounded=1;whiteSpace=wrap;html=1;fillColor=#f8cecc;strokeColor=#b85450;" vertex="1" parent="1">
          <mxGeometry x="320" y="60" width="120" height="60" as="geometry" />
        </mxCell>
        <mxCell id="xzGEer4VqcZUY7eYkHOb-13" style="edgeStyle=orthogonalEdgeStyle;rounded=0;orthogonalLoop=1;jettySize=auto;html=1;exitX=1;exitY=0.5;exitDx=0;exitDy=0;entryX=0;entryY=0.5;entryDx=0;entryDy=0;" edge="1" parent="1" source="xzGEer4VqcZUY7eYkHOb-2" target="xzGEer4VqcZUY7eYkHOb-12">
          <mxGeometry relative="1" as="geometry" />
        </mxCell>
        <mxCell id="xzGEer4VqcZUY7eYkHOb-14" style="edgeStyle=orthogonalEdgeStyle;rounded=0;orthogonalLoop=1;jettySize=auto;html=1;exitX=0.5;exitY=1;exitDx=0;exitDy=0;" edge="1" parent="1" source="xzGEer4VqcZUY7eYkHOb-2" target="xzGEer4VqcZUY7eYkHOb-4">
          <mxGeometry relative="1" as="geometry" />
        </mxCell>
        <mxCell id="xzGEer4VqcZUY7eYkHOb-2" value="数据是否在内存中" style="rhombus;whiteSpace=wrap;html=1;fillColor=#d5e8d4;strokeColor=#82b366;" vertex="1" parent="1">
          <mxGeometry x="320" y="150" width="120" height="80" as="geometry" />
        </mxCell>
        <mxCell id="xzGEer4VqcZUY7eYkHOb-6" style="edgeStyle=orthogonalEdgeStyle;rounded=0;orthogonalLoop=1;jettySize=auto;html=1;exitX=0.5;exitY=1;exitDx=0;exitDy=0;" edge="1" parent="1" source="xzGEer4VqcZUY7eYkHOb-4" target="xzGEer4VqcZUY7eYkHOb-5">
          <mxGeometry relative="1" as="geometry" />
        </mxCell>
        <mxCell id="xzGEer4VqcZUY7eYkHOb-4" value="返回这条记录" style="rounded=1;whiteSpace=wrap;html=1;fillColor=#d5e8d4;strokeColor=#82b366;" vertex="1" parent="1">
          <mxGeometry x="320" y="260" width="120" height="60" as="geometry" />
        </mxCell>
        <mxCell id="xzGEer4VqcZUY7eYkHOb-16" style="edgeStyle=orthogonalEdgeStyle;rounded=0;orthogonalLoop=1;jettySize=auto;html=1;exitX=0.5;exitY=1;exitDx=0;exitDy=0;" edge="1" parent="1" source="xzGEer4VqcZUY7eYkHOb-5" target="xzGEer4VqcZUY7eYkHOb-7">
          <mxGeometry relative="1" as="geometry" />
        </mxCell>
        <mxCell id="xzGEer4VqcZUY7eYkHOb-5" value="将该记录的name列&lt;br&gt;修改成zs" style="rounded=1;whiteSpace=wrap;html=1;fillColor=#f8cecc;strokeColor=#b85450;" vertex="1" parent="1">
          <mxGeometry x="320" y="350" width="120" height="60" as="geometry" />
        </mxCell>
        <mxCell id="xzGEer4VqcZUY7eYkHOb-17" style="edgeStyle=orthogonalEdgeStyle;rounded=0;orthogonalLoop=1;jettySize=auto;html=1;exitX=0.5;exitY=1;exitDx=0;exitDy=0;entryX=0.5;entryY=0;entryDx=0;entryDy=0;" edge="1" parent="1" source="xzGEer4VqcZUY7eYkHOb-7" target="xzGEer4VqcZUY7eYkHOb-8">
          <mxGeometry relative="1" as="geometry" />
        </mxCell>
        <mxCell id="xzGEer4VqcZUY7eYkHOb-7" value="写入新记录" style="rounded=1;whiteSpace=wrap;html=1;fillColor=#f8cecc;strokeColor=#b85450;" vertex="1" parent="1">
          <mxGeometry x="320" y="440" width="120" height="60" as="geometry" />
        </mxCell>
        <mxCell id="xzGEer4VqcZUY7eYkHOb-18" style="edgeStyle=orthogonalEdgeStyle;rounded=0;orthogonalLoop=1;jettySize=auto;html=1;exitX=0.5;exitY=1;exitDx=0;exitDy=0;entryX=0.5;entryY=0;entryDx=0;entryDy=0;" edge="1" parent="1" source="xzGEer4VqcZUY7eYkHOb-8" target="xzGEer4VqcZUY7eYkHOb-9">
          <mxGeometry relative="1" as="geometry" />
        </mxCell>
        <mxCell id="xzGEer4VqcZUY7eYkHOb-8" value="新记录更新到内存" style="rounded=1;whiteSpace=wrap;html=1;fillColor=#d5e8d4;strokeColor=#82b366;" vertex="1" parent="1">
          <mxGeometry x="320" y="530" width="120" height="60" as="geometry" />
        </mxCell>
        <mxCell id="xzGEer4VqcZUY7eYkHOb-19" style="edgeStyle=orthogonalEdgeStyle;rounded=0;orthogonalLoop=1;jettySize=auto;html=1;exitX=0.5;exitY=1;exitDx=0;exitDy=0;" edge="1" parent="1" source="xzGEer4VqcZUY7eYkHOb-9" target="xzGEer4VqcZUY7eYkHOb-10">
          <mxGeometry relative="1" as="geometry" />
        </mxCell>
        <mxCell id="xzGEer4VqcZUY7eYkHOb-9" value="写入redolog&lt;br&gt;处于prepare阶段" style="rounded=1;whiteSpace=wrap;html=1;fillColor=#d5e8d4;strokeColor=#82b366;" vertex="1" parent="1">
          <mxGeometry x="320" y="620" width="120" height="60" as="geometry" />
        </mxCell>
        <mxCell id="xzGEer4VqcZUY7eYkHOb-20" style="edgeStyle=orthogonalEdgeStyle;rounded=0;orthogonalLoop=1;jettySize=auto;html=1;exitX=0.5;exitY=1;exitDx=0;exitDy=0;" edge="1" parent="1" source="xzGEer4VqcZUY7eYkHOb-10" target="xzGEer4VqcZUY7eYkHOb-11">
          <mxGeometry relative="1" as="geometry" />
        </mxCell>
        <mxCell id="xzGEer4VqcZUY7eYkHOb-10" value="写入binlog" style="rounded=1;whiteSpace=wrap;html=1;fillColor=#f8cecc;strokeColor=#b85450;" vertex="1" parent="1">
          <mxGeometry x="320" y="710" width="120" height="60" as="geometry" />
        </mxCell>
        <mxCell id="xzGEer4VqcZUY7eYkHOb-11" value="提交事务&lt;br&gt;redolog置为commit阶段" style="rounded=1;whiteSpace=wrap;html=1;fillColor=#d5e8d4;strokeColor=#82b366;" vertex="1" parent="1">
          <mxGeometry x="320" y="800" width="120" height="60" as="geometry" />
        </mxCell>
        <mxCell id="xzGEer4VqcZUY7eYkHOb-15" style="edgeStyle=orthogonalEdgeStyle;rounded=0;orthogonalLoop=1;jettySize=auto;html=1;exitX=0.5;exitY=1;exitDx=0;exitDy=0;entryX=1;entryY=0.5;entryDx=0;entryDy=0;" edge="1" parent="1" source="xzGEer4VqcZUY7eYkHOb-12" target="xzGEer4VqcZUY7eYkHOb-4">
          <mxGeometry relative="1" as="geometry" />
        </mxCell>
        <mxCell id="xzGEer4VqcZUY7eYkHOb-12" value="从磁盘中读入内存" style="rounded=1;whiteSpace=wrap;html=1;fillColor=#d5e8d4;strokeColor=#82b366;" vertex="1" parent="1">
          <mxGeometry x="530" y="160" width="120" height="60" as="geometry" />
        </mxCell>
        <mxCell id="xzGEer4VqcZUY7eYkHOb-21" value="" style="rounded=1;whiteSpace=wrap;html=1;dashed=1;" vertex="1" parent="1">
          <mxGeometry x="100" y="60" width="140" height="80" as="geometry" />
        </mxCell>
        <mxCell id="xzGEer4VqcZUY7eYkHOb-22" value="" style="rounded=1;whiteSpace=wrap;html=1;dashed=1;fillColor=#f8cecc;strokeColor=#b85450;" vertex="1" parent="1">
          <mxGeometry x="110" y="85" width="20" height="10" as="geometry" />
        </mxCell>
        <mxCell id="xzGEer4VqcZUY7eYkHOb-25" value="" style="rounded=1;whiteSpace=wrap;html=1;dashed=1;fillColor=#d5e8d4;strokeColor=#82b366;" vertex="1" parent="1">
          <mxGeometry x="110" y="110" width="20" height="10" as="geometry" />
        </mxCell>
        <mxCell id="xzGEer4VqcZUY7eYkHOb-26" value="表示执行器中执行" style="text;html=1;strokeColor=none;fillColor=none;align=center;verticalAlign=middle;whiteSpace=wrap;rounded=0;dashed=1;" vertex="1" parent="1">
          <mxGeometry x="130" y="80" width="100" height="20" as="geometry" />
        </mxCell>
        <mxCell id="xzGEer4VqcZUY7eYkHOb-27" value="表示Innodb中执行" style="text;html=1;strokeColor=none;fillColor=none;align=center;verticalAlign=middle;whiteSpace=wrap;rounded=0;dashed=1;" vertex="1" parent="1">
          <mxGeometry x="130" y="105" width="100" height="20" as="geometry" />
        </mxCell>
      </root>
    </mxGraphModel>
  </diagram>
</mxfile>
